<?xml version="1.0" encoding="utf-8"?>
<!-- Generator: Adobe Illustrator 21.1.0, SVG Export Plug-In . SVG Version: 6.00 Build 0)  -->
<svg version="1.1" id="Layer_1" xmlns="http://www.w3.org/2000/svg" xmlns:xlink="http://www.w3.org/1999/xlink" x="0px" y="0px"
	 viewBox="0 0 185.8 56.3" style="enable-background:new 0 0 185.8 56.3;" xml:space="preserve">
<style type="text/css">
	.st0{fill:#EC6223;}
</style>
<g>
	<g>
		<g>
			<path class="st0" d="M138.1,26c1.5-1,3.6-2.7,3.6-7.6c0-4.9-3.9-9.9-12.1-9.9c-8.2,0-28.7,0-28.7,0v36.7H131
				c0,0,12.2,0.9,12.2-10.8C143.2,29.3,139.7,26.4,138.1,26z M110.6,15.2h16.3c0,0,4.8-0.2,4.8,4.1c0,4.3-4.8,4.1-4.8,4.1h-16.3
				V15.2z M127.6,37.7h-17v-8.2h17c0,0,5-0.2,5,4.1C132.6,37.9,127.6,37.7,127.6,37.7z"/>
		</g>
	</g>
</g>
<g>
	<g>
		<path class="st0" d="M70.1,15.5h24.7V8.4H68.8c0,0-13.2,0.1-13.2,10.4c0,10.3,8.3,11,13.5,11c5.1,0,13.2,0,13.2,0s4.2-0.3,4.2,4.2
			c0,4.5-2.4,4.5-4.5,4.5c-2,0-25.6,0-25.6,0v6.7h27.1c0,0,13,1,13-10.7c0-9.6-7.3-11.1-15.6-11.1c-8.3,0-10.7,0-10.7,0
			s-4.4,0.4-4.4-3.7C65.7,15.5,70.1,15.5,70.1,15.5z"/>
	</g>
</g>
<g>
	<g>
		<g>
			<g>
				<path class="st0" d="M32.2,6.6c2,4.2,3.7,8.7,5.2,13.2c2.8,0.6,5.5,1.1,8.1,1.5c-1.2-4.1-2.6-8.2-4.2-12.2
					C38.5,8.4,35.4,7.5,32.2,6.6z"/>
			</g>
		</g>
		<g>
			<g>
				<path class="st0" d="M26.4,20.3c1.9,5.4,3.3,10.9,4.3,16.2c3.3-0.1,6.4-0.2,9.2-0.3c-0.8-4.6-1.8-9.4-3.2-14.1
					C33.5,21.5,30.1,20.9,26.4,20.3z"/>
			</g>
		</g>
		<g>
			<path class="st0" d="M0,0c2.3,4.2,4.8,8.9,7.2,14.3c5.8,0.7,11,1.6,15.6,2.5c-2.1-5.3-4.5-10.1-7-14.5C10.9,1.3,5.6,0.4,0,0z"/>
		</g>
		<g>
			<path class="st0" d="M15.9,40.5c1.2,5.9,1.9,11.3,2.5,16.1c4.5-0.9,8.6-1.9,12.2-2.8c-0.2-4.4-0.7-9.2-1.5-14.3
				C25.3,39.8,20.9,40.2,15.9,40.5z"/>
		</g>
		<g>
			<path class="st0" d="M18.3,2.8c2.4,4.4,4.8,9.2,6.8,14.4c3.9,0.8,7.3,1.5,10.5,2.2c-1.5-4.7-3.4-9.2-5.4-13.4
				C26.5,4.9,22.6,3.8,18.3,2.8z"/>
		</g>
		<g>
			<path class="st0" d="M8.6,17.4c2.6,6.2,4.8,12.8,6.4,19.5c5.1-0.2,9.6-0.3,13.6-0.5c-1.1-5.6-2.6-11.2-4.6-16.7
				C19.4,18.8,14.3,18,8.6,17.4z"/>
		</g>
	</g>
</g>
<g>
	<g>
		<path class="st0" d="M176.6,37.7h-14.2c-4,0-6.8-1.9-6.8-10.9c0-11.2,7-10.4,7-10.4h23.2V8.5c0,0-23.9,0-25,0s-15.2-1-15.2,18.6
			c0,19.7,15.9,18,15.9,18h24.3v-7.4L176.6,37.7L176.6,37.7z"/>
	</g>
</g>
<path class="st0" d="M56.8,54c-0.1,0.6,0.3,1.1,0.9,1.2c0.2,0,0.3,0,0.5,0c1.1,0,2.1,0,3.2,0c0.2,0,0.2,0,0.2,0.2c0,0.3,0,0.7,0,1
	c-0.1,0-0.1,0-0.2,0c-1.3,0-2.5,0-3.8,0c-1.1,0-1.9-0.5-2.3-1.7c-0.2-0.7-0.2-1.4-0.2-2.1c0-0.5,0.2-0.9,0.4-1.3
	c0.3-0.6,0.9-1,1.6-1.1c0.3-0.1,0.6-0.1,0.8-0.1c1.1,0,2.3,0,3.4,0c0.2,0,0.2,0,0.2,0.2c0,0.3,0,0.6,0,0.9c0,0.2,0,0.2-0.2,0.2
	c-1.1,0-2.2,0-3.3,0c-0.7,0-1.1,0.4-1.2,1.1c0,0.1,0,0.1,0.1,0.1c0.4,0,0.7,0,1.1,0c1.1,0,2.1,0,3.2,0c0.2,0,0.2,0,0.2,0.2
	c0,0.3,0,0.5,0,0.8c0,0.2,0,0.2-0.2,0.2c-1.4,0-2.8,0-4.2,0C57,54,56.9,54,56.8,54z"/>
<path class="st0" d="M148.8,54.3c0.6,0.7,1.1,1.4,1.7,2.2c0,0-0.1,0-0.1,0c-0.6,0-1.2,0-1.8,0c-0.1,0-0.1-0.1-0.2-0.1
	c-0.4-0.6-0.8-1.2-1.2-1.8c-0.1-0.1-0.2-0.2-0.3-0.2c-0.6,0-1.2,0-1.8,0c-0.1,0-0.2,0-0.2,0.2c0,0.6,0,1.1,0,1.7
	c0,0.1,0,0.2-0.2,0.2c-0.5,0-0.9,0-1.4,0c-0.2,0-0.2-0.1-0.2-0.2c0-1.6,0-3.3,0-4.9c0-0.3,0-0.6,0-1c0-0.1,0-0.2,0.1-0.2
	c1.5,0,3,0,4.5,0c0.4,0,0.9,0,1.3,0.2c0.6,0.2,0.9,0.7,1,1.3c0.1,0.5,0.1,1-0.1,1.5c-0.2,0.5-0.5,0.8-1,1
	C148.9,54.3,148.9,54.3,148.8,54.3z M144.9,53.2c0.1,0,0.1,0,0.2,0c0.9,0,1.7,0,2.6,0c0.1,0,0.2,0,0.2,0c0.2,0,0.4-0.1,0.5-0.4
	c0-0.3,0-0.5,0-0.8c0-0.2-0.2-0.4-0.4-0.4c-0.2,0-0.4,0-0.6,0c-0.7,0-1.5,0-2.2,0c-0.1,0-0.1,0-0.2,0c0,0-0.1,0.1-0.1,0.1
	C144.9,52.2,144.9,52.7,144.9,53.2z"/>
<path class="st0" d="M184.2,54.3c0.6,0.7,1.1,1.4,1.7,2.2c0,0-0.1,0-0.1,0c-0.6,0-1.2,0-1.8,0c-0.1,0-0.1-0.1-0.2-0.1
	c-0.4-0.6-0.8-1.2-1.2-1.8c-0.1-0.1-0.2-0.2-0.3-0.2c-0.6,0-1.2,0-1.8,0c-0.1,0-0.2,0-0.2,0.2c0,0.6,0,1.1,0,1.7
	c0,0.1,0,0.2-0.2,0.2c-0.5,0-0.9,0-1.4,0c-0.2,0-0.2-0.1-0.2-0.2c0-1.6,0-3.3,0-4.9c0-0.3,0-0.6,0-1c0-0.1,0-0.2,0.1-0.2
	c1.5,0,3,0,4.5,0c0.4,0,0.9,0,1.3,0.2c0.6,0.2,0.9,0.7,1,1.3c0.1,0.5,0.1,1-0.1,1.5c-0.2,0.5-0.5,0.8-1,1
	C184.3,54.3,184.3,54.3,184.2,54.3z M180.3,53.2c0.1,0,0.1,0,0.2,0c0.9,0,1.7,0,2.6,0c0.1,0,0.2,0,0.2,0c0.2,0,0.4-0.1,0.5-0.4
	c0-0.3,0-0.5,0-0.8c0-0.2-0.2-0.4-0.4-0.4c-0.2,0-0.4,0-0.6,0c-0.7,0-1.5,0-2.2,0c-0.1,0-0.1,0-0.2,0c0,0-0.1,0.1-0.1,0.1
	C180.3,52.2,180.3,52.7,180.3,53.2z"/>
<path class="st0" d="M129.1,56.5c-0.5,0-1-0.1-1.5-0.1c-1.1-0.1-2.1-1-2.3-2.1c-0.2-0.8-0.2-1.6,0.1-2.4c0.3-0.8,0.9-1.3,1.6-1.5
	c0.5-0.1,0.9-0.2,1.4-0.2c0.6,0,1.2,0,1.8,0c1.1,0.1,2,0.5,2.5,1.6c0.3,0.7,0.3,1.4,0.2,2.1c-0.1,0.5-0.2,0.9-0.5,1.3
	c-0.4,0.6-1,0.9-1.6,1.1C130.3,56.5,129.7,56.5,129.1,56.5z M129.1,55.3C129.1,55.3,129.1,55.3,129.1,55.3c0.3,0,0.6,0,0.8,0
	c0.6-0.1,1.1-0.3,1.3-0.9c0.2-0.6,0.2-1.2,0-1.9c-0.2-0.5-0.6-0.8-1.1-0.9c-0.6-0.1-1.2,0-1.8,0c-0.6,0-1,0.4-1.2,0.9
	c-0.2,0.5-0.2,1-0.1,1.6c0.1,0.7,0.5,1.1,1.1,1.2C128.4,55.3,128.7,55.3,129.1,55.3z"/>
<path class="st0" d="M163,52.8c0.1,0,0.1,0,0.2,0c1.4,0,2.8,0,4.3,0c0.2,0,0.2,0,0.2,0.2c0,0.3,0,0.6,0,0.8c0,0.1,0,0.2-0.2,0.2
	c-1.4,0-2.9,0-4.3,0c-0.2,0-0.2,0-0.2,0.2c0,0.1,0,0.2,0.1,0.3c0.1,0.4,0.4,0.6,0.8,0.7c0.2,0,0.3,0,0.5,0c1.1,0,2.1,0,3.2,0
	c0.2,0,0.2,0,0.2,0.2c0,0.3,0,0.6,0,1c0,0.1,0,0.1-0.1,0.1c-1.3,0-2.6,0-3.9,0c-1.1-0.1-2-0.6-2.3-2c-0.2-0.8-0.2-1.6,0.1-2.4
	c0.2-0.8,0.8-1.4,1.6-1.6c0.3-0.1,0.6-0.1,1-0.1c1.2,0,2.3,0,3.5,0c0.1,0,0.2,0,0.2,0.2c0,0.3,0,0.6,0,0.9c0,0.1,0,0.2-0.2,0.2
	c-1.1,0-2.2,0-3.3,0C163.4,51.6,163.1,52.1,163,52.8C163,52.7,163,52.7,163,52.8z"/>
<path class="st0" d="M90.3,53.4c0-1,0-1.9,0-2.9c0-0.2,0-0.2,0.2-0.2c1.3,0,2.7,0,4,0c0.3,0,0.7,0,1,0.1c0.8,0.2,1.3,0.5,1.4,1.5
	c0.1,0.4,0.1,0.9-0.1,1.3c-0.2,0.6-0.6,1-1.2,1.1c-0.4,0.1-0.7,0.1-1.1,0.1c-0.8,0-1.6,0-2.4,0c-0.1,0-0.2,0-0.2,0.2
	c0,0.6,0,1.1,0,1.7c0,0.1,0,0.2-0.2,0.2c-0.5,0-0.9,0-1.4,0c-0.1,0-0.2,0-0.2-0.2C90.4,55.4,90.3,54.4,90.3,53.4z M93.4,53.2
	c0.3,0,0.7,0,1,0c0.1,0,0.3,0,0.4,0c0.2,0,0.4-0.1,0.4-0.4c0-0.2,0-0.4,0-0.7c0-0.2-0.1-0.4-0.4-0.5c-0.1,0-0.3-0.1-0.4-0.1
	c-0.8,0-1.5,0-2.3,0c-0.1,0-0.2,0-0.1,0.2c0,0.4,0,0.9,0,1.3c0,0.1,0,0.2,0.2,0.1C92.6,53.2,93,53.2,93.4,53.2z"/>
<path class="st0" d="M72.4,50.3c0.1,0,0.1,0,0.2,0c0.6,0,1.2,0,1.8,0c0.1,0,0.2,0,0.2,0.1c0.5,0.5,1,1.1,1.4,1.6
	c0,0,0.1,0.1,0.2,0.2c0.1-0.1,0.1-0.1,0.1-0.2c0.5-0.6,1.1-1.1,1.6-1.6c0,0,0.1-0.1,0.2-0.1c0.6,0,1.2,0,1.8,0c0,0,0,0,0.1,0
	c-1,1-1.9,1.9-2.9,2.9c1,1.1,2,2.1,3.1,3.2c-0.1,0-0.1,0-0.2,0c-0.6,0-1.2,0-1.8,0c-0.1,0-0.2,0-0.2-0.1c-0.6-0.7-1.2-1.4-1.8-2.1
	c-0.1-0.1-0.2-0.1-0.2,0c-0.7,0.7-1.3,1.4-2,2.1c-0.1,0.1-0.1,0.1-0.3,0.1c-0.6,0-1.1,0-1.7,0c0,0-0.1,0-0.1,0
	c1.1-1.1,2.2-2.2,3.3-3.3C74.2,52.2,73.3,51.3,72.4,50.3z"/>
<path class="st0" d="M114.4,56.5c-0.1,0-0.1,0-0.2,0c-1.9,0-3.8,0-5.7,0c-0.1,0-0.2,0-0.2-0.2c0-1.9,0-3.9,0-5.8
	c0-0.1,0-0.2,0.2-0.2c0.5,0,0.9,0,1.4,0c0.1,0,0.2,0,0.2,0.2c0,1.5,0,3,0,4.5c0,0.2,0,0.2,0.2,0.2c1.3,0,2.7,0,4,0
	c0.1,0,0.2,0,0.2,0.2C114.4,55.7,114.4,56.1,114.4,56.5z"/>
</svg>
